<mxfile host="app.diagrams.net" agent="Mozilla/5.0 (Windows NT 10.0; Win64; x64; rv:134.0) Gecko/20100101 Firefox/134.0" version="24.8.3">
  <diagram name="Page-1" id="s8xztOO7BumkGDskIjR9">
    <mxGraphModel dx="1687" dy="909" grid="1" gridSize="10" guides="1" tooltips="1" connect="1" arrows="1" fold="1" page="1" pageScale="1" pageWidth="827" pageHeight="1169" math="0" shadow="0">
      <root>
        <mxCell id="0" />
        <mxCell id="1" parent="0" />
        <mxCell id="BGrVTVoPzo42Mm0vaw1O-45" style="edgeStyle=orthogonalEdgeStyle;rounded=0;orthogonalLoop=1;jettySize=auto;html=1;exitX=0.75;exitY=1;exitDx=0;exitDy=0;entryX=0;entryY=0.5;entryDx=0;entryDy=0;" edge="1" parent="1" source="BGrVTVoPzo42Mm0vaw1O-32" target="BGrVTVoPzo42Mm0vaw1O-42">
          <mxGeometry relative="1" as="geometry" />
        </mxCell>
        <mxCell id="BGrVTVoPzo42Mm0vaw1O-32" value="" style="rounded=0;whiteSpace=wrap;html=1;" vertex="1" parent="1">
          <mxGeometry x="95" y="220" width="260" height="220" as="geometry" />
        </mxCell>
        <mxCell id="BGrVTVoPzo42Mm0vaw1O-34" value="&lt;font style=&quot;font-size: 20px;&quot;&gt;NUM&lt;font style=&quot;font-size: 20px;&quot;&gt;&lt;br&gt;&lt;/font&gt;&lt;/font&gt;" style="text;html=1;align=center;verticalAlign=middle;resizable=0;points=[];autosize=1;strokeColor=none;fillColor=none;" vertex="1" parent="1">
          <mxGeometry x="190" y="370" width="70" height="40" as="geometry" />
        </mxCell>
        <mxCell id="BGrVTVoPzo42Mm0vaw1O-42" value="&lt;font style=&quot;font-size: 20px;&quot;&gt;IDALU&lt;/font&gt;" style="whiteSpace=wrap;html=1;" vertex="1" parent="1">
          <mxGeometry x="380" y="495" width="120" height="60" as="geometry" />
        </mxCell>
        <mxCell id="BGrVTVoPzo42Mm0vaw1O-43" value="&lt;font style=&quot;font-size: 20px;&quot;&gt;DESCRIP&lt;/font&gt;" style="whiteSpace=wrap;html=1;" vertex="1" parent="1">
          <mxGeometry x="130" y="510" width="120" height="60" as="geometry" />
        </mxCell>
        <mxCell id="BGrVTVoPzo42Mm0vaw1O-44" style="edgeStyle=orthogonalEdgeStyle;rounded=0;orthogonalLoop=1;jettySize=auto;html=1;exitX=0.25;exitY=1;exitDx=0;exitDy=0;entryX=0.368;entryY=0.036;entryDx=0;entryDy=0;entryPerimeter=0;" edge="1" parent="1" source="BGrVTVoPzo42Mm0vaw1O-32" target="BGrVTVoPzo42Mm0vaw1O-43">
          <mxGeometry relative="1" as="geometry" />
        </mxCell>
        <mxCell id="BGrVTVoPzo42Mm0vaw1O-59" style="edgeStyle=orthogonalEdgeStyle;rounded=0;orthogonalLoop=1;jettySize=auto;html=1;exitX=1;exitY=0.5;exitDx=0;exitDy=0;" edge="1" parent="1" source="BGrVTVoPzo42Mm0vaw1O-61" target="BGrVTVoPzo42Mm0vaw1O-64">
          <mxGeometry relative="1" as="geometry" />
        </mxCell>
        <mxCell id="BGrVTVoPzo42Mm0vaw1O-60" style="edgeStyle=orthogonalEdgeStyle;rounded=0;orthogonalLoop=1;jettySize=auto;html=1;exitX=1;exitY=0.75;exitDx=0;exitDy=0;entryX=0;entryY=0.75;entryDx=0;entryDy=0;" edge="1" parent="1" source="BGrVTVoPzo42Mm0vaw1O-61" target="BGrVTVoPzo42Mm0vaw1O-65">
          <mxGeometry relative="1" as="geometry" />
        </mxCell>
        <mxCell id="BGrVTVoPzo42Mm0vaw1O-61" value="&lt;font style=&quot;font-size: 20px;&quot;&gt;ANY&lt;br&gt;&lt;/font&gt;" style="whiteSpace=wrap;html=1;" vertex="1" parent="1">
          <mxGeometry x="730" y="460" width="120" height="60" as="geometry" />
        </mxCell>
        <mxCell id="BGrVTVoPzo42Mm0vaw1O-62" style="edgeStyle=orthogonalEdgeStyle;rounded=0;orthogonalLoop=1;jettySize=auto;html=1;exitX=1;exitY=0.5;exitDx=0;exitDy=0;entryX=0;entryY=0.5;entryDx=0;entryDy=0;" edge="1" parent="1" source="BGrVTVoPzo42Mm0vaw1O-63" target="BGrVTVoPzo42Mm0vaw1O-66">
          <mxGeometry relative="1" as="geometry" />
        </mxCell>
        <mxCell id="BGrVTVoPzo42Mm0vaw1O-63" value="&lt;font style=&quot;font-size: 20px;&quot;&gt;MODUL&lt;br&gt;&lt;/font&gt;" style="whiteSpace=wrap;html=1;" vertex="1" parent="1">
          <mxGeometry x="860" y="802.5" width="120" height="60" as="geometry" />
        </mxCell>
        <mxCell id="BGrVTVoPzo42Mm0vaw1O-64" value="&lt;font style=&quot;font-size: 20px;&quot;&gt;DATAINI&lt;/font&gt;" style="whiteSpace=wrap;html=1;" vertex="1" parent="1">
          <mxGeometry x="1005" y="400" width="120" height="60" as="geometry" />
        </mxCell>
        <mxCell id="BGrVTVoPzo42Mm0vaw1O-65" value="&lt;font style=&quot;font-size: 20px;&quot;&gt;DATALLIU&lt;/font&gt;" style="whiteSpace=wrap;html=1;" vertex="1" parent="1">
          <mxGeometry x="1005" y="480" width="120" height="60" as="geometry" />
        </mxCell>
        <mxCell id="BGrVTVoPzo42Mm0vaw1O-66" value="&lt;font style=&quot;font-size: 18px;&quot;&gt;NOMMODUL&lt;/font&gt;" style="whiteSpace=wrap;html=1;" vertex="1" parent="1">
          <mxGeometry x="1135" y="760" width="120" height="60" as="geometry" />
        </mxCell>
        <mxCell id="BGrVTVoPzo42Mm0vaw1O-75" style="edgeStyle=orthogonalEdgeStyle;rounded=0;orthogonalLoop=1;jettySize=auto;html=1;exitX=0.75;exitY=1;exitDx=0;exitDy=0;entryX=0;entryY=0.5;entryDx=0;entryDy=0;" edge="1" parent="1" source="BGrVTVoPzo42Mm0vaw1O-77" target="BGrVTVoPzo42Mm0vaw1O-89">
          <mxGeometry relative="1" as="geometry" />
        </mxCell>
        <mxCell id="BGrVTVoPzo42Mm0vaw1O-76" style="edgeStyle=orthogonalEdgeStyle;rounded=0;orthogonalLoop=1;jettySize=auto;html=1;exitX=1;exitY=0.75;exitDx=0;exitDy=0;entryX=0;entryY=0.5;entryDx=0;entryDy=0;" edge="1" parent="1" source="BGrVTVoPzo42Mm0vaw1O-77" target="BGrVTVoPzo42Mm0vaw1O-88">
          <mxGeometry relative="1" as="geometry" />
        </mxCell>
        <mxCell id="BGrVTVoPzo42Mm0vaw1O-77" value="" style="rounded=0;whiteSpace=wrap;html=1;" vertex="1" parent="1">
          <mxGeometry x="151" y="650" width="190" height="280" as="geometry" />
        </mxCell>
        <mxCell id="BGrVTVoPzo42Mm0vaw1O-87" style="edgeStyle=orthogonalEdgeStyle;rounded=0;orthogonalLoop=1;jettySize=auto;html=1;exitX=0.5;exitY=1;exitDx=0;exitDy=0;" edge="1" parent="1" source="BGrVTVoPzo42Mm0vaw1O-88" target="BGrVTVoPzo42Mm0vaw1O-89">
          <mxGeometry relative="1" as="geometry" />
        </mxCell>
        <mxCell id="BGrVTVoPzo42Mm0vaw1O-88" value="&lt;font style=&quot;font-size: 20px;&quot;&gt;IDPRO&lt;/font&gt;" style="whiteSpace=wrap;html=1;" vertex="1" parent="1">
          <mxGeometry x="480" y="760" width="120" height="60" as="geometry" />
        </mxCell>
        <mxCell id="BGrVTVoPzo42Mm0vaw1O-89" value="&lt;font style=&quot;font-size: 20px;&quot;&gt;CÁRREC&lt;/font&gt;" style="whiteSpace=wrap;html=1;" vertex="1" parent="1">
          <mxGeometry x="591" y="965" width="120" height="60" as="geometry" />
        </mxCell>
        <mxCell id="BGrVTVoPzo42Mm0vaw1O-95" value="&lt;font style=&quot;font-size: 20px;&quot;&gt;ANY&lt;/font&gt;" style="text;html=1;align=center;verticalAlign=middle;resizable=0;points=[];autosize=1;strokeColor=none;fillColor=none;" vertex="1" parent="1">
          <mxGeometry x="195" y="250" width="60" height="40" as="geometry" />
        </mxCell>
        <mxCell id="BGrVTVoPzo42Mm0vaw1O-96" value="&lt;font style=&quot;font-size: 20px;&quot;&gt;MODUL&lt;font style=&quot;font-size: 20px;&quot;&gt;&lt;br&gt;&lt;/font&gt;&lt;/font&gt;" style="text;html=1;align=center;verticalAlign=middle;resizable=0;points=[];autosize=1;strokeColor=none;fillColor=none;" vertex="1" parent="1">
          <mxGeometry x="175" y="310" width="100" height="40" as="geometry" />
        </mxCell>
        <mxCell id="BGrVTVoPzo42Mm0vaw1O-98" value="&lt;font style=&quot;font-size: 20px;&quot;&gt;ANY&lt;/font&gt;" style="text;html=1;align=center;verticalAlign=middle;resizable=0;points=[];autosize=1;strokeColor=none;fillColor=none;" vertex="1" parent="1">
          <mxGeometry x="216" y="740" width="60" height="40" as="geometry" />
        </mxCell>
        <mxCell id="BGrVTVoPzo42Mm0vaw1O-99" value="&lt;font style=&quot;font-size: 20px;&quot;&gt;MODUL&lt;font style=&quot;font-size: 20px;&quot;&gt;&lt;br&gt;&lt;/font&gt;&lt;/font&gt;" style="text;html=1;align=center;verticalAlign=middle;resizable=0;points=[];autosize=1;strokeColor=none;fillColor=none;" vertex="1" parent="1">
          <mxGeometry x="196" y="800" width="100" height="40" as="geometry" />
        </mxCell>
      </root>
    </mxGraphModel>
  </diagram>
</mxfile>
